<svg xmlns="http://www.w3.org/2000/svg" version="1.1" xmlns:xlink="http://www.w3.org/1999/xlink" xmlns:svgjs="http://svgjs.com/svgjs" width="1440" height="560" preserveAspectRatio="none" viewBox="0 0 1440 560"><g mask="url(&quot;#SvgjsMask2078&quot;)" fill="none"><rect width="1440" height="560" x="0" y="0" fill="url(#SvgjsLinearGradient2079)"></rect><path d="M586 7L585 361" stroke-width="6" stroke="url(#SvgjsLinearGradient2080)" stroke-linecap="round" class="Down"></path><path d="M765 226L764 -79" stroke-width="10" stroke="url(#SvgjsLinearGradient2081)" stroke-linecap="round" class="Up"></path><path d="M840 525L839 864" stroke-width="10" stroke="url(#SvgjsLinearGradient2081)" stroke-linecap="round" class="Up"></path><path d="M1149 378L1148 788" stroke-width="6" stroke="url(#SvgjsLinearGradient2081)" stroke-linecap="round" class="Up"></path><path d="M827 480L826 121" stroke-width="10" stroke="url(#SvgjsLinearGradient2080)" stroke-linecap="round" class="Down"></path><path d="M177 69L176 299" stroke-width="6" stroke="url(#SvgjsLinearGradient2080)" stroke-linecap="round" class="Down"></path><path d="M1339 51L1338 468" stroke-width="8" stroke="url(#SvgjsLinearGradient2080)" stroke-linecap="round" class="Down"></path><path d="M850 443L849 128" stroke-width="10" stroke="url(#SvgjsLinearGradient2081)" stroke-linecap="round" class="Up"></path><path d="M1080 175L1079 -178" stroke-width="8" stroke="url(#SvgjsLinearGradient2080)" stroke-linecap="round" class="Down"></path><path d="M986 13L985 349" stroke-width="8" stroke="url(#SvgjsLinearGradient2081)" stroke-linecap="round" class="Up"></path><path d="M1003 357L1002 580" stroke-width="8" stroke="url(#SvgjsLinearGradient2081)" stroke-linecap="round" class="Up"></path><path d="M915 493L914 842" stroke-width="10" stroke="url(#SvgjsLinearGradient2081)" stroke-linecap="round" class="Up"></path><path d="M1035 410L1034 81" stroke-width="8" stroke="url(#SvgjsLinearGradient2080)" stroke-linecap="round" class="Down"></path><path d="M214 241L213 500" stroke-width="8" stroke="url(#SvgjsLinearGradient2080)" stroke-linecap="round" class="Down"></path><path d="M682 481L681 153" stroke-width="6" stroke="url(#SvgjsLinearGradient2081)" stroke-linecap="round" class="Up"></path><path d="M166 512L165 329" stroke-width="6" stroke="url(#SvgjsLinearGradient2081)" stroke-linecap="round" class="Up"></path><path d="M1260 396L1259 665" stroke-width="6" stroke="url(#SvgjsLinearGradient2081)" stroke-linecap="round" class="Up"></path><path d="M1095 385L1094 131" stroke-width="6" stroke="url(#SvgjsLinearGradient2081)" stroke-linecap="round" class="Up"></path><path d="M207 82L206 -159" stroke-width="6" stroke="url(#SvgjsLinearGradient2081)" stroke-linecap="round" class="Up"></path><path d="M96 123L95 296" stroke-width="8" stroke="url(#SvgjsLinearGradient2080)" stroke-linecap="round" class="Down"></path><path d="M852 507L851 111" stroke-width="6" stroke="url(#SvgjsLinearGradient2081)" stroke-linecap="round" class="Up"></path><path d="M3 94L2 -114" stroke-width="10" stroke="url(#SvgjsLinearGradient2080)" stroke-linecap="round" class="Down"></path><path d="M774 64L773 329" stroke-width="6" stroke="url(#SvgjsLinearGradient2081)" stroke-linecap="round" class="Up"></path><path d="M626 59L625 233" stroke-width="6" stroke="url(#SvgjsLinearGradient2081)" stroke-linecap="round" class="Up"></path><path d="M362 140L361 -30" stroke-width="6" stroke="url(#SvgjsLinearGradient2080)" stroke-linecap="round" class="Down"></path><path d="M25 498L24 880" stroke-width="8" stroke="url(#SvgjsLinearGradient2081)" stroke-linecap="round" class="Up"></path><path d="M418 186L417 -134" stroke-width="8" stroke="url(#SvgjsLinearGradient2081)" stroke-linecap="round" class="Up"></path><path d="M876 107L875 387" stroke-width="10" stroke="url(#SvgjsLinearGradient2080)" stroke-linecap="round" class="Down"></path><path d="M1027 27L1026 241" stroke-width="8" stroke="url(#SvgjsLinearGradient2081)" stroke-linecap="round" class="Up"></path><path d="M366 70L365 442" stroke-width="8" stroke="url(#SvgjsLinearGradient2081)" stroke-linecap="round" class="Up"></path><path d="M514 386L513 -9" stroke-width="8" stroke="url(#SvgjsLinearGradient2080)" stroke-linecap="round" class="Down"></path><path d="M194 399L193 738" stroke-width="10" stroke="url(#SvgjsLinearGradient2081)" stroke-linecap="round" class="Up"></path><path d="M204 462L203 299" stroke-width="10" stroke="url(#SvgjsLinearGradient2080)" stroke-linecap="round" class="Down"></path><path d="M1322 430L1321 643" stroke-width="10" stroke="url(#SvgjsLinearGradient2081)" stroke-linecap="round" class="Up"></path><path d="M934 184L933 -46" stroke-width="6" stroke="url(#SvgjsLinearGradient2081)" stroke-linecap="round" class="Up"></path><path d="M1265 19L1264 252" stroke-width="10" stroke="url(#SvgjsLinearGradient2081)" stroke-linecap="round" class="Up"></path></g><defs><mask id="SvgjsMask2078"><rect width="1440" height="560" fill="#ffffff"></rect></mask><linearGradient x1="15.28%" y1="-39.29%" x2="84.72%" y2="139.29%" gradientUnits="userSpaceOnUse" id="SvgjsLinearGradient2079"><stop stop-color="rgba(255, 226, 226, 1)" offset="0"></stop><stop stop-color="rgba(200, 197, 239, 1)" offset="1"></stop></linearGradient><linearGradient x1="0%" y1="0%" x2="0%" y2="100%" id="SvgjsLinearGradient2080"><stop stop-color="rgba(209, 210, 212, 0)" offset="0"></stop><stop stop-color="rgba(209, 210, 212, 1)" offset="1"></stop></linearGradient><linearGradient x1="0%" y1="100%" x2="0%" y2="0%" id="SvgjsLinearGradient2081"><stop stop-color="rgba(209, 210, 212, 0)" offset="0"></stop><stop stop-color="rgba(209, 210, 212, 1)" offset="1"></stop></linearGradient></defs></svg>